<?xml version="1.0" standalone="no"?><!DOCTYPE svg PUBLIC "-//W3C//DTD SVG 1.1//EN" "http://www.w3.org/Graphics/SVG/1.1/DTD/svg11.dtd"><svg t="1771996172097" class="icon" viewBox="0 0 1024 1024" version="1.1" xmlns="http://www.w3.org/2000/svg" p-id="6676" xmlns:xlink="http://www.w3.org/1999/xlink" width="200" height="200"><path d="M928 192l-185.6 0-57.6-96C678.4 76.8 652.8 64 633.6 64L390.4 64C371.2 64 345.6 76.8 339.2 96L281.6 192 96 192C44.8 192 0 236.8 0 288l0 576C0 915.2 44.8 960 96 960l832 0c51.2 0 96-44.8 96-96l0-576C1024 236.8 979.2 192 928 192zM512 832c-160 0-288-128-288-288C224 384 352 256 512 256s288 128 288 288C800 704 672 832 512 832z" p-id="6677"></path><path d="M512 544m-192 0a3 3 0 1 0 384 0 3 3 0 1 0-384 0Z" p-id="6678" data-spm-anchor-id="a313x.search_index.0.i9.53433a81NI1j9K" class="selected" fill="#2c2c2c"></path></svg>