<?xml version="1.0" standalone="no"?><!DOCTYPE svg PUBLIC "-//W3C//DTD SVG 1.1//EN" "http://www.w3.org/Graphics/SVG/1.1/DTD/svg11.dtd"><svg t="1771931181640" class="icon" viewBox="0 0 1024 1024" version="1.1" xmlns="http://www.w3.org/2000/svg" p-id="13743" xmlns:xlink="http://www.w3.org/1999/xlink" width="200" height="200"><path d="M939.530167 841.61409L780.997524 683.090657c45.907563-65.565275 70.63985-143.463436 70.63985-225.170343 0-105.159038-40.950667-204.024743-115.318422-278.384311C661.959384 105.174388 563.087539 64.224744 457.920314 64.224744c-105.167225 0-204.036 40.949644-278.398638 115.311259-74.363661 74.358545-115.319445 173.226297-115.319445 278.384311 0 105.159038 40.951691 204.024743 115.318422 278.386358 74.367755 74.359568 173.232436 115.309212 278.398638 115.309212 81.712023 0 159.615301-24.733311 225.180575-70.637803L841.632509 939.501514c13.516852 13.516852 31.229259 20.273742 48.944736 20.273742 17.715477 0 35.428907-6.755868 48.944735-20.273742 27.03268-27.027563 27.03268-70.855768 0.002047-97.889471l0.00614 0.002047zM202.65249 457.918267c0-140.752698 114.51308-255.259638 255.270894-255.259638s255.271918 114.51001 255.271918 255.259638c0 140.751674-114.514103 255.260661-255.271918 255.260662-140.755768 0.001023-255.270894-114.508987-255.270894-255.260662z" fill="#2c2c2c" p-id="13744" data-spm-anchor-id="a313x.search_index.0.i26.37ef3a81IczJoM" class="selected"></path></svg>