<?xml version="1.0" standalone="no"?><!DOCTYPE svg PUBLIC "-//W3C//DTD SVG 1.1//EN" "http://www.w3.org/Graphics/SVG/1.1/DTD/svg11.dtd"><svg t="1771931238778" class="icon" viewBox="0 0 1024 1024" version="1.1" xmlns="http://www.w3.org/2000/svg" p-id="19957" xmlns:xlink="http://www.w3.org/1999/xlink" width="200" height="200"><path d="M97.216 828.16H926.72c19.968 0 33.216 13.312 33.216 33.28v33.28c0 19.968-13.248 33.28-33.216 33.28H97.28c-19.968 0-33.216-13.312-33.216-33.28v-33.28c0-19.968 16.64-33.28 33.216-33.28z m0-232.96H478.72c19.968 0 33.216 13.312 33.216 33.28v33.28c0 19.968-13.248 33.28-33.216 33.28H97.28c-19.968 0-33.216-13.312-33.216-33.28v-33.28c0-19.968 16.64-33.28 33.216-33.28z m0-266.24H478.72c19.968 0 33.216 13.312 33.216 33.28v33.28c0 19.968-13.248 33.28-33.216 33.28H97.28C77.248 428.8 64 415.488 64 395.52v-33.28c0-19.968 16.64-33.28 33.216-33.28z m0-232.96H926.72c19.968 0 33.216 13.312 33.216 33.28v33.28c0 19.968-13.248 33.28-33.216 33.28H97.28C77.248 195.84 64 182.528 64 162.56v-33.28c0-19.968 16.64-33.28 33.216-33.28z m524.288 599.04V328.96L926.784 512" p-id="19958" data-spm-anchor-id="a313x.search_index.0.i38.37ef3a81IczJoM" class="selected" fill="#2c2c2c"></path></svg>