<?xml version="1.0" standalone="no"?><!DOCTYPE svg PUBLIC "-//W3C//DTD SVG 1.1//EN" "http://www.w3.org/Graphics/SVG/1.1/DTD/svg11.dtd"><svg t="1771931190081" class="icon" viewBox="0 0 1024 1024" version="1.1" xmlns="http://www.w3.org/2000/svg" p-id="14770" xmlns:xlink="http://www.w3.org/1999/xlink" width="200" height="200"><path d="M574.976 1018.368h-133.12c-36.864 0-66.56-29.696-66.56-66.56V71.68c0-36.864 29.696-66.56 66.56-66.56h133.12c36.864 0 66.56 29.696 66.56 66.56v880.64c0 36.352-29.696 66.048-66.56 66.048zM205.312 1023.488h-133.12c-36.864 0-66.56-29.696-66.56-66.56v-351.232c0-36.864 29.696-66.56 66.56-66.56h133.12c36.864 0 66.56 29.696 66.56 66.56v351.232c-0.512 36.864-30.208 66.56-66.56 66.56zM945.152 1018.368h-133.12c-36.864 0-66.56-29.696-66.56-66.56V406.528c0-36.864 29.696-66.56 66.56-66.56h133.12c36.864 0 66.56 29.696 66.56 66.56v545.28c-0.512 36.864-30.208 66.56-66.56 66.56z" p-id="14771" data-spm-anchor-id="a313x.search_index.0.i28.37ef3a81IczJoM" class="selected" fill="#2c2c2c"></path></svg>