<?xml version="1.0" standalone="no"?><!DOCTYPE svg PUBLIC "-//W3C//DTD SVG 1.1//EN" "http://www.w3.org/Graphics/SVG/1.1/DTD/svg11.dtd"><svg t="1771931145830" class="icon" viewBox="0 0 1024 1024" version="1.1" xmlns="http://www.w3.org/2000/svg" p-id="11681" xmlns:xlink="http://www.w3.org/1999/xlink" width="200" height="200"><path d="M395.242667 938.666667l-16.981334-136.533334a161.792 161.792 0 0 1-26.026666-12.8 339.584 339.584 0 0 1-23.850667-16l-126.293333 53.333334L85.333333 624l109.312-83.2a102.485333 102.485333 0 0 1-1.066666-14.421333v-28.757334c0-4.629333 0.362667-9.450667 1.066666-14.421333L85.333333 400l116.757334-202.666667 126.293333 53.333334a289.066667 289.066667 0 0 1 24.405333-16 213.546667 213.546667 0 0 1 25.472-12.8l16.981334-136.533334h233.514666l16.981334 136.533334c9.173333 3.562667 17.877333 7.829333 26.026666 12.8 8.149333 4.970667 16.085333 10.304 23.850667 16l126.293333-53.333334L938.666667 400l-109.312 83.2a102.4 102.4 0 0 1 1.066666 14.421333v28.757334c0 4.629333-0.725333 9.450667-2.133333 14.421333l109.312 83.2-116.736 202.666667-125.248-53.333334a289.066667 289.066667 0 0 1-24.405333 16 213.546667 213.546667 0 0 1-25.472 12.8l-16.981334 136.533334H395.242667zM514.133333 661.333333c41.045333 0 76.074667-14.570667 105.088-43.733333 29.013333-29.162667 43.52-64.362667 43.52-105.6 0-41.237333-14.506667-76.437333-43.52-105.6C590.186667 377.237333 555.157333 362.666667 514.133333 362.666667c-41.749333 0-76.970667 14.570667-105.642666 43.733333-28.672 29.162667-42.986667 64.362667-42.965334 105.6 0 41.237333 14.336 76.437333 42.965334 105.6C437.141333 646.762667 472.341333 661.333333 514.133333 661.333333z" fill="#2c2c2c" p-id="11682" data-spm-anchor-id="a313x.search_index.0.i21.37ef3a81IczJoM" class="selected"></path></svg>