<?xml version="1.0" standalone="no"?><!DOCTYPE svg PUBLIC "-//W3C//DTD SVG 1.1//EN" "http://www.w3.org/Graphics/SVG/1.1/DTD/svg11.dtd"><svg t="1771931154425" class="icon" viewBox="0 0 1024 1024" version="1.1" xmlns="http://www.w3.org/2000/svg" p-id="12696" xmlns:xlink="http://www.w3.org/1999/xlink" width="200" height="200"><path d="M299.759131 277.175787c0 27.659967 5.502317 55.308677 16.08842 80.863702 10.580986 25.552979 26.243711 48.992831 45.803185 68.553329 19.557428 19.553335 42.99728 35.21606 68.547189 45.802162 25.554002 10.582009 53.203736 16.083304 80.862679 16.083304s55.308677-5.500271 80.861656-16.084327c25.554002-10.587126 48.995901-26.249851 68.553329-45.802162 19.558451-19.559475 35.220153-42.999326 45.803185-68.553329 10.587126-25.554002 16.084327-53.202713 16.084327-80.863702 0-27.658943-5.497201-55.307653-16.084327-80.861656-10.582009-25.552979-26.244734-48.992831-45.803185-68.547189-19.558451-19.558451-42.99728-35.220153-68.553329-45.807279-25.552979-10.582009-53.202713-16.084327-80.861656-16.084327s-55.308677 5.500271-80.862679 16.084327c-25.549909 10.587126-48.989761 26.249851-68.547189 45.807279-19.559475 19.554358-35.221176 42.99421-45.803185 68.547189C305.262472 221.868133 299.759131 249.516844 299.759131 277.175787L299.759131 277.175787z" fill="#2c2c2c" p-id="12697" data-spm-anchor-id="a313x.search_index.0.i24.37ef3a81IczJoM" class="selected"></path><path d="M762.231111 530.790972c-13.749142-9.990538-32.67519-8.800433-45.215808 2.667759-54.0408 49.424666-126.004809 79.574337-205.013257 79.574337-79.007425 0-150.971433-30.149671-205.01735-79.574337-12.540617-11.468193-31.466666-12.657274-45.211714-2.667759-111.938442 81.322144-174.49008 182.552709-174.49008 331.497996 0 22.059412 1.610684 43.73713 4.697999 64.941058 2.583848 17.71957 17.723663 30.895661 35.628452 30.895661l384.387577 0L896.389624 958.125687c17.904789 0 33.04358-13.176091 35.622312-30.895661 3.093455-21.203928 4.704139-42.8796 4.704139-64.941058C936.717098 713.343681 874.163413 612.113115 762.231111 530.790972L762.231111 530.790972z" fill="#2c2c2c" p-id="12698" data-spm-anchor-id="a313x.search_index.0.i23.37ef3a81IczJoM" class="selected"></path></svg>